# xmcd CD database file
#
# Track frame offsets:
#	150
#	20177
#	39477
#	58470
#	70090
#	84112
#	98997
#	114090
#	141592
#	150322
#
# Disc length: 2256 seconds
#
# Revision: 0
# Processed by: cddbd v1.5.1PL0 Copyright (c) Steve Scherf et al.
# Submitted via: CDex 1.50Beta5
#
DISCID=8108ce0a
DTITLE=HAL FROM APOLLO '69 - 666
DYEAR=1999
DGENRE=Rock
TTITLE0=666-English
TTITLE1=UP
TTITLE2=HOWLING
TTITLE3=B.T.B.N
TTITLE4=CONTRACT KILLER
TTITLE5=LIQUID SKY
TTITLE6=SLINKEE
TTITLE7=CYCLOTRON
TTITLE8=D×N×A
TTITLE9=666-Japanese
EXTD=YEAR: 1999
EXTT0=
EXTT1=
EXTT2=
EXTT3=
EXTT4=
EXTT5=
EXTT6=
EXTT7=
EXTT8=
EXTT9=
PLAYORDER=
